<?xml version="1.0" encoding="UTF-8" ?>
<!DOCTYPE svg PUBLIC "-//W3C//DTD SVG 1.1//EN" "http://www.w3.org/Graphics/SVG/1.1/DTD/svg11.dtd">
<svg width="1024pt" height="408pt" viewBox="0 0 1024 408" version="1.1" xmlns="http://www.w3.org/2000/svg">
<path fill="#fefeff" d=" M 0.00 0.00 L 1024.00 0.00 L 1024.00 408.00 L 0.00 408.00 L 0.00 0.00 Z" />
<path fill="#2876bb" d=" M 213.14 70.60 C 218.49 69.76 223.80 68.59 229.20 68.05 C 229.26 84.48 229.22 100.92 229.23 117.35 C 267.18 117.39 305.14 117.34 343.09 117.38 C 348.17 117.12 352.47 121.97 352.00 126.96 C 352.01 177.98 351.97 228.99 352.02 280.01 C 351.95 283.48 352.51 287.34 350.30 290.32 C 348.58 293.10 345.08 293.90 342.03 293.81 C 304.43 293.77 266.83 293.80 229.23 293.79 C 229.23 309.17 229.23 324.55 229.23 339.93 C 207.10 336.67 185.13 332.38 163.06 328.74 C 131.74 323.28 100.40 317.97 69.09 312.43 C 67.43 312.29 67.87 310.17 67.76 309.05 C 67.83 238.64 67.75 168.21 67.80 97.80 C 67.39 96.33 68.61 95.36 69.92 95.39 C 117.65 87.09 165.40 78.88 213.14 70.60 Z" />
<path fill="#fefeff" d=" M 229.24 126.89 C 266.98 126.87 304.73 126.87 342.47 126.89 C 342.48 179.35 342.48 231.81 342.47 284.27 C 304.72 284.28 266.98 284.28 229.23 284.27 C 229.23 280.24 229.23 276.21 229.24 272.18 C 233.79 271.86 239.27 273.45 243.01 270.05 C 247.62 265.93 251.20 260.83 255.08 256.05 C 264.00 244.35 272.79 232.34 278.85 218.87 C 277.97 218.01 277.06 217.20 276.12 216.42 C 274.47 216.04 273.49 217.48 272.46 218.45 C 261.75 229.41 251.04 240.38 240.19 251.21 C 237.52 254.48 232.89 253.04 229.24 253.33 C 229.24 237.97 229.22 222.61 229.25 207.25 C 236.25 211.94 243.46 216.37 251.15 219.86 C 252.08 218.63 254.86 216.79 253.20 215.17 C 245.30 207.24 237.27 199.44 229.25 191.63 C 229.21 180.31 229.25 168.99 229.23 157.67 C 233.46 157.76 237.76 157.25 241.94 158.09 C 245.28 159.93 247.63 163.12 250.40 165.69 C 250.91 165.65 251.92 165.57 252.42 165.53 C 254.43 162.00 258.33 159.12 258.49 154.85 C 254.33 149.93 249.11 146.01 244.59 141.43 C 240.67 137.15 234.32 139.26 229.24 138.79 C 229.23 134.82 229.23 130.85 229.24 126.89 Z" />
<path fill="#2876bb" d=" M 280.68 146.69 C 283.70 143.29 286.83 138.77 291.89 138.83 C 302.97 138.74 314.06 138.77 325.14 138.81 C 327.67 138.73 330.94 139.81 331.06 142.80 C 331.37 155.21 331.10 167.65 331.19 180.07 C 331.57 183.38 328.72 185.50 326.77 187.71 C 322.88 191.65 319.40 196.02 315.19 199.63 C 310.76 199.08 307.70 195.11 303.95 192.98 C 305.87 189.00 310.01 186.76 312.09 182.94 C 312.87 174.64 312.35 166.22 312.32 157.87 C 305.89 157.57 299.43 157.49 293.00 157.82 C 290.52 157.68 289.05 159.89 287.39 161.34 C 276.92 171.92 266.45 182.50 256.04 193.14 C 255.02 194.59 253.36 194.69 251.75 194.59 C 251.07 192.90 250.25 191.02 251.50 189.36 C 259.32 173.93 269.83 160.08 280.68 146.69 Z" />
<path fill="#2876bb" d=" M 613.51 151.24 C 617.22 151.21 620.93 151.21 624.64 151.23 C 624.63 165.80 624.67 180.36 624.62 194.93 C 628.53 189.22 633.95 184.05 640.97 182.70 C 648.41 181.54 656.97 181.86 662.85 187.19 C 668.75 192.71 670.21 201.27 670.41 209.00 C 670.42 223.38 670.46 237.77 670.38 252.16 C 666.69 252.17 663.01 252.17 659.33 252.17 C 659.20 238.77 659.32 225.37 659.27 211.96 C 659.03 206.30 658.28 200.08 654.27 195.73 C 649.10 190.43 640.21 190.39 634.17 194.20 C 627.96 198.25 624.67 205.72 624.65 213.00 C 624.60 226.03 624.69 239.07 624.62 252.11 C 620.93 252.18 617.24 252.18 613.56 252.16 C 613.45 218.52 613.54 184.88 613.51 151.24 Z" />
<path fill="#fefeff" d=" M 123.65 157.54 C 137.05 156.57 150.43 155.52 163.82 154.45 C 163.85 160.57 163.87 166.69 163.80 172.80 C 155.68 172.88 147.54 172.80 139.43 173.33 C 139.44 180.34 139.42 187.36 139.44 194.37 C 147.57 194.24 155.69 194.59 163.81 194.53 C 163.86 200.58 163.82 206.64 163.85 212.70 C 155.72 212.42 147.57 212.44 139.44 212.13 C 139.43 219.20 139.42 226.26 139.45 233.32 C 148.61 233.89 157.75 234.62 166.93 234.92 C 167.14 241.11 167.03 247.30 167.04 253.49 C 152.58 252.12 138.11 250.94 123.65 249.59 C 123.66 218.91 123.65 188.23 123.65 157.54 Z" />
<path fill="#2876bb" d=" M 432.36 252.11 C 432.30 220.25 432.34 188.38 432.35 156.52 C 448.61 156.55 464.88 156.46 481.14 156.56 C 481.14 159.94 481.14 163.32 481.10 166.71 C 468.63 166.80 456.16 166.70 443.69 166.76 C 443.68 177.24 443.68 187.72 443.69 198.20 C 455.19 198.24 466.70 198.21 478.20 198.22 C 478.21 201.67 478.21 205.12 478.23 208.57 C 466.72 208.66 455.21 208.57 443.70 208.62 C 443.66 219.62 443.69 230.62 443.68 241.62 C 456.85 241.70 470.02 241.57 483.20 241.68 C 483.19 245.02 483.20 248.36 483.28 251.69 C 480.88 252.00 478.48 252.25 476.06 252.21 C 461.50 252.08 446.93 252.26 432.36 252.11 Z" />
<path fill="#2876bb" d=" M 560.38 191.35 C 566.55 185.19 575.37 182.04 584.02 182.20 C 589.96 181.94 595.99 182.83 601.28 185.64 C 601.24 189.38 601.24 193.13 601.23 196.87 C 594.57 192.64 586.32 190.11 578.51 192.36 C 569.18 194.74 562.72 203.69 561.53 212.97 C 560.87 219.86 561.00 227.23 564.62 233.36 C 568.21 239.94 575.52 244.04 582.97 244.03 C 589.43 244.50 595.59 241.91 600.86 238.41 C 600.82 241.99 600.82 245.57 600.79 249.16 C 591.81 253.89 580.93 254.98 571.24 251.94 C 562.01 249.06 554.65 241.39 551.74 232.22 C 547.30 218.47 549.79 201.70 560.38 191.35 Z" />
<path fill="#2876bb" d=" M 687.77 188.72 C 696.45 183.43 707.00 181.34 717.07 182.49 C 723.38 183.22 729.53 186.85 732.37 192.68 C 734.83 197.37 735.34 202.79 735.36 208.01 C 735.29 222.73 735.39 237.45 735.30 252.16 C 731.67 252.17 728.04 252.17 724.42 252.17 C 724.33 248.53 724.32 244.88 724.40 241.24 C 721.18 246.45 716.55 251.09 710.47 252.67 C 701.52 254.98 690.37 253.39 684.71 245.38 C 678.49 235.87 680.89 220.76 691.46 215.32 C 701.60 210.11 713.44 210.96 724.34 208.48 C 724.08 203.56 723.39 198.03 719.48 194.57 C 714.72 190.61 707.96 191.18 702.33 192.55 C 696.96 193.79 692.27 196.79 687.82 199.91 C 687.79 196.18 687.81 192.45 687.77 188.72 Z" />
<path fill="#2876bb" d=" M 763.26 194.75 C 767.00 188.78 772.82 183.76 779.93 182.57 C 786.64 181.71 794.15 181.86 799.70 186.26 C 806.46 191.59 808.74 200.72 808.69 208.98 C 808.57 223.29 808.86 237.61 808.55 251.91 C 804.91 252.52 801.21 252.15 797.58 251.80 C 797.69 238.85 797.61 225.90 797.63 212.96 C 797.61 207.06 796.83 200.68 792.91 196.00 C 788.68 191.26 781.34 190.52 775.63 192.70 C 767.95 195.62 763.11 203.86 763.27 211.93 C 763.30 225.21 763.20 238.49 763.33 251.77 C 759.66 252.20 755.96 252.27 752.28 252.20 C 751.72 229.71 752.47 207.21 751.94 184.73 C 752.10 184.51 752.43 184.08 752.59 183.87 C 756.14 183.63 759.70 183.81 763.26 183.81 C 763.26 187.46 763.29 191.10 763.26 194.75 Z" />
<path fill="#2876bb" d=" M 824.94 197.95 C 829.06 189.93 836.89 183.65 845.96 182.48 C 851.52 181.99 857.48 181.74 862.60 184.36 C 866.67 186.14 869.69 189.53 872.25 193.06 C 872.22 189.97 872.22 186.88 872.24 183.79 C 875.88 183.78 879.52 183.78 883.16 183.80 C 883.17 205.21 883.16 226.63 883.18 248.05 C 882.99 256.46 881.40 265.30 876.24 272.18 C 871.52 278.64 863.74 282.15 856.00 283.29 C 845.56 284.61 834.57 283.89 824.99 279.23 C 824.99 275.51 824.97 271.78 825.04 268.06 C 834.05 272.98 844.64 276.13 854.88 273.65 C 860.86 272.47 866.35 268.63 869.02 263.09 C 872.42 256.13 872.24 248.15 872.23 240.59 C 868.81 245.68 864.24 250.24 858.28 252.15 C 849.74 254.80 839.74 254.06 832.42 248.62 C 825.52 243.62 821.81 235.27 820.63 227.03 C 819.69 217.22 820.24 206.83 824.94 197.95 Z" />
<path fill="#2876bb" d=" M 914.23 185.13 C 919.99 182.01 926.74 181.80 933.11 182.48 C 941.14 183.46 948.43 188.76 951.93 196.05 C 955.81 203.64 955.92 212.36 955.70 220.68 C 939.64 220.70 923.59 220.66 907.54 220.70 C 907.86 228.97 911.02 238.23 919.08 241.91 C 929.48 246.42 942.00 243.61 950.70 236.73 C 950.76 240.23 950.77 243.74 950.81 247.25 C 942.48 252.99 931.93 254.28 922.08 253.31 C 914.21 252.50 906.69 248.26 902.32 241.61 C 896.65 233.24 895.61 222.67 896.46 212.83 C 897.61 201.57 903.75 190.20 914.23 185.13 Z" />
<path fill="#2876bb" d=" M 487.78 183.81 C 491.94 183.85 496.11 183.58 500.27 183.90 C 501.27 184.50 501.69 185.69 502.34 186.62 C 507.16 195.18 511.99 203.74 516.82 212.31 C 522.43 202.77 528.14 193.29 533.79 183.78 C 537.88 183.78 541.96 183.78 546.06 183.81 C 538.45 195.27 530.90 206.75 523.22 218.15 C 530.57 229.58 538.41 240.69 545.73 252.14 C 541.45 252.18 537.18 252.17 532.91 252.16 C 527.31 243.07 521.83 233.91 516.31 224.78 C 510.62 233.90 505.17 243.17 499.31 252.19 C 495.15 252.16 491.00 252.18 486.85 252.13 C 494.01 241.00 501.92 230.36 509.31 219.39 C 510.21 218.44 508.95 217.31 508.62 216.40 C 501.67 205.54 494.64 194.73 487.78 183.81 Z" />
<path fill="#2876bb" d=" M 274.96 194.98 C 275.94 193.73 276.92 192.48 277.83 191.18 C 292.14 197.75 304.92 207.11 317.30 216.72 C 321.46 220.20 326.03 223.30 329.52 227.51 C 331.56 229.85 331.17 233.13 331.22 236.01 C 331.06 246.74 331.39 257.49 331.08 268.22 C 331.00 271.30 327.63 272.43 325.03 272.20 C 313.33 272.17 301.62 272.23 289.93 272.18 C 286.10 272.39 283.88 268.83 281.30 266.65 C 277.82 263.06 273.54 260.18 270.59 256.12 C 270.88 251.85 274.79 248.95 276.79 245.38 C 277.23 245.38 278.10 245.38 278.53 245.38 C 282.23 248.14 284.78 253.61 290.01 253.33 C 297.46 253.32 304.91 253.43 312.35 253.20 C 312.45 246.79 312.58 240.37 312.36 233.97 C 312.43 231.47 310.15 229.97 308.72 228.25 C 297.46 217.17 286.11 206.18 274.96 194.98 Z" />
<path fill="#fefeff" d=" M 846.44 192.53 C 853.15 190.27 861.04 191.85 866.07 196.93 C 870.24 200.71 872.15 206.36 872.22 211.89 C 872.34 219.98 872.74 228.92 867.74 235.82 C 862.42 243.93 850.64 246.42 842.27 241.79 C 836.04 238.18 832.60 231.08 831.89 224.10 C 831.17 216.26 831.82 207.89 835.90 200.97 C 838.20 196.97 842.02 193.89 846.44 192.53 Z" />
<path fill="#fefeff" d=" M 915.38 196.34 C 921.59 190.25 932.82 189.72 939.08 196.01 C 943.08 200.00 944.09 205.86 944.53 211.26 C 932.32 211.31 920.11 211.31 907.91 211.27 C 908.73 205.67 911.07 200.14 915.38 196.34 Z" />
<path fill="#fefeff" d=" M 707.90 219.88 C 713.40 219.19 718.88 218.34 724.37 217.53 C 724.36 224.00 724.70 231.18 720.47 236.57 C 715.72 243.59 705.52 246.26 698.06 242.18 C 691.97 238.95 691.35 230.16 695.09 224.95 C 698.36 221.45 703.40 220.63 707.90 219.88 Z" />
</svg>
